<svg width="34" height="34" viewBox="0 0 34 34" fill="none" xmlns="http://www.w3.org/2000/svg">
<path d="M12.833 24.4999L24.4997 16.9999L12.833 9.49992V24.4999ZM16.9997 33.6666C14.6941 33.6666 12.5275 33.2291 10.4997 32.3541C8.4719 31.4791 6.70801 30.2916 5.20801 28.7916C3.70801 27.2916 2.52051 25.5277 1.64551 23.4999C0.770508 21.4721 0.333008 19.3055 0.333008 16.9999C0.333008 14.6944 0.770508 12.5277 1.64551 10.4999C2.52051 8.47214 3.70801 6.70825 5.20801 5.20825C6.70801 3.70825 8.4719 2.52075 10.4997 1.64575C12.5275 0.770752 14.6941 0.333252 16.9997 0.333252C19.3052 0.333252 21.4719 0.770752 23.4997 1.64575C25.5275 2.52075 27.2913 3.70825 28.7913 5.20825C30.2913 6.70825 31.4788 8.47214 32.3538 10.4999C33.2288 12.5277 33.6663 14.6944 33.6663 16.9999C33.6663 19.3055 33.2288 21.4721 32.3538 23.4999C31.4788 25.5277 30.2913 27.2916 28.7913 28.7916C27.2913 30.2916 25.5275 31.4791 23.4997 32.3541C21.4719 33.2291 19.3052 33.6666 16.9997 33.6666ZM16.9997 30.3333C20.7219 30.3333 23.8747 29.0416 26.458 26.4583C29.0413 23.8749 30.333 20.7221 30.333 16.9999C30.333 13.2777 29.0413 10.1249 26.458 7.54159C23.8747 4.95825 20.7219 3.66659 16.9997 3.66659C13.2775 3.66659 10.1247 4.95825 7.54134 7.54159C4.95801 10.1249 3.66634 13.2777 3.66634 16.9999C3.66634 20.7221 4.95801 23.8749 7.54134 26.4583C10.1247 29.0416 13.2775 30.3333 16.9997 30.3333Z" fill="#1C1B1F"/>
</svg>
