<svg width="30" height="34" viewBox="0 0 30 34" fill="none" xmlns="http://www.w3.org/2000/svg">
<path d="M12.6667 25.75L24.4167 14L22.0833 11.6666L12.6667 21.0833L7.91667 16.3333L5.58333 18.6666L12.6667 25.75ZM3.33333 34C2.41667 34 1.63194 33.6736 0.979167 33.0208C0.326389 32.368 0 31.5833 0 30.6666V7.33329C0 6.41663 0.326389 5.6319 0.979167 4.97913C1.63194 4.32635 2.41667 3.99996 3.33333 3.99996H10.3333C10.6944 2.99996 11.2986 2.1944 12.1458 1.58329C12.9931 0.972182 13.9444 0.666626 15 0.666626C16.0556 0.666626 17.0069 0.972182 17.8542 1.58329C18.7014 2.1944 19.3056 2.99996 19.6667 3.99996H26.6667C27.5833 3.99996 28.3681 4.32635 29.0208 4.97913C29.6736 5.6319 30 6.41663 30 7.33329V30.6666C30 31.5833 29.6736 32.368 29.0208 33.0208C28.3681 33.6736 27.5833 34 26.6667 34H3.33333ZM3.33333 30.6666H26.6667V7.33329H3.33333V30.6666ZM15 6.08329C15.3611 6.08329 15.6597 5.96524 15.8958 5.72913C16.1319 5.49301 16.25 5.1944 16.25 4.83329C16.25 4.47218 16.1319 4.17357 15.8958 3.93746C15.6597 3.70135 15.3611 3.58329 15 3.58329C14.6389 3.58329 14.3403 3.70135 14.1042 3.93746C13.8681 4.17357 13.75 4.47218 13.75 4.83329C13.75 5.1944 13.8681 5.49301 14.1042 5.72913C14.3403 5.96524 14.6389 6.08329 15 6.08329Z" fill="#1C1B1F"/>
</svg>
