<svg width="34" height="34" viewBox="0 0 34 34" fill="none" xmlns="http://www.w3.org/2000/svg">
<path d="M13.6654 20.3334H20.332V17H13.6654V20.3334ZM13.6654 15.3334H26.9987V12H13.6654V15.3334ZM13.6654 10.3334H26.9987V7.00004H13.6654V10.3334ZM10.332 27C9.41536 27 8.63064 26.6737 7.97786 26.0209C7.32509 25.3681 6.9987 24.5834 6.9987 23.6667V3.66671C6.9987 2.75004 7.32509 1.96532 7.97786 1.31254C8.63064 0.659763 9.41536 0.333374 10.332 0.333374H30.332C31.2487 0.333374 32.0334 0.659763 32.6862 1.31254C33.339 1.96532 33.6654 2.75004 33.6654 3.66671V23.6667C33.6654 24.5834 33.339 25.3681 32.6862 26.0209C32.0334 26.6737 31.2487 27 30.332 27H10.332ZM10.332 23.6667H30.332V3.66671H10.332V23.6667ZM3.66536 33.6667C2.7487 33.6667 1.96398 33.3403 1.3112 32.6875C0.65842 32.0348 0.332031 31.25 0.332031 30.3334V7.00004H3.66536V30.3334H26.9987V33.6667H3.66536Z" fill="#1C1B1F"/>
</svg>
