<svg width="66" height="66" viewBox="0 0 66 66" fill="none" xmlns="http://www.w3.org/2000/svg">
<mask id="mask0_264_81" style="mask-type:alpha" maskUnits="userSpaceOnUse" x="0" y="0" width="66" height="66">
<rect width="66" height="66" fill="#D9D9D9"/>
</mask>
<g mask="url(#mask0_264_81)">
<path d="M34.3063 46.2687L57.3375 23.2375L53.7625 19.6625L30.7313 42.6938L34.3063 46.2687ZM16.3625 52.25C11.7792 52.0208 8.36458 51.0583 6.11875 49.3625C3.87292 47.6667 2.75 45.2146 2.75 42.0063C2.75 39.0271 3.97604 36.6094 6.42812 34.7531C8.88021 32.8969 12.2833 31.7854 16.6375 31.4188C18.425 31.2812 19.7656 30.9948 20.6594 30.5594C21.5531 30.124 22 29.5167 22 28.7375C22 27.5458 21.324 26.6521 19.9719 26.0562C18.6198 25.4604 16.3854 25.025 13.2688 24.75L13.75 19.25C18.4708 19.6167 21.9427 20.5677 24.1656 22.1031C26.3885 23.6385 27.5 25.85 27.5 28.7375C27.5 31.1667 26.6177 33.0688 24.8531 34.4438C23.0885 35.8188 20.4875 36.6438 17.05 36.9188C14.1167 37.1479 11.9167 37.6865 10.45 38.5344C8.98333 39.3823 8.25 40.5396 8.25 42.0063C8.25 43.6104 8.89167 44.7677 10.175 45.4781C11.4583 46.1885 13.6125 46.6125 16.6375 46.75L16.3625 52.25ZM35.6125 52.7313L24.2688 41.3875L50.5312 15.125C51.4479 14.2083 52.5365 13.75 53.7969 13.75C55.0573 13.75 56.1458 14.2083 57.0625 15.125L61.875 19.9375C62.7917 20.8542 63.25 21.9427 63.25 23.2031C63.25 24.4635 62.7917 25.5521 61.875 26.4688L35.6125 52.7313ZM24.6812 55C23.9021 55.1833 23.2146 54.9771 22.6187 54.3813C22.0229 53.7854 21.8167 53.0979 22 52.3188L24.2688 41.3875L35.6125 52.7313L24.6812 55Z" fill="#00FF84"/>
</g>
</svg>
