<svg width="34" height="37" viewBox="0 0 34 37" fill="none" xmlns="http://www.w3.org/2000/svg">
<path d="M0.333496 37V30.3334H33.6668V37H0.333496ZM7.00016 23.6667H9.3335L22.3335 10.7084L19.9585 8.33337L7.00016 21.3334V23.6667ZM3.66683 27V19.9167L22.3335 1.29171C22.6391 0.986152 22.9932 0.750041 23.396 0.583374C23.7988 0.416707 24.2224 0.333374 24.6668 0.333374C25.1113 0.333374 25.5418 0.416707 25.9585 0.583374C26.3752 0.750041 26.7502 1.00004 27.0835 1.33337L29.3752 3.66671C29.7085 3.97226 29.9516 4.33337 30.1043 4.75004C30.2571 5.16671 30.3335 5.59726 30.3335 6.04171C30.3335 6.45837 30.2571 6.8681 30.1043 7.27087C29.9516 7.67365 29.7085 8.04171 29.3752 8.37504L10.7502 27H3.66683Z" fill="#0059FF"/>
</svg>
