<svg width="50" height="50" viewBox="0 0 50 50" fill="none" xmlns="http://www.w3.org/2000/svg">
<path d="M21.3745 36.4169L39.0414 18.75L35.9576 15.7081L21.3745 30.2919L13.9995 22.9169L10.9576 25.9581L21.3745 36.4169ZM24.9995 50C21.5691 50 18.3331 49.3438 15.2914 48.0313C12.2497 46.7188 9.59681 44.9306 7.33264 42.6669C5.06889 40.4027 3.28076 37.7498 1.96826 34.7081C0.655762 31.6665 -0.000488281 28.4304 -0.000488281 25C-0.000488281 21.5417 0.655762 18.2917 1.96826 15.25C3.28076 12.2083 5.06889 9.56251 7.33264 7.31251C9.59681 5.06251 12.2497 3.28126 15.2914 1.96876C18.3331 0.656258 21.5691 7.62939e-06 24.9995 7.62939e-06C28.4578 7.62939e-06 31.7079 0.656258 34.7495 1.96876C37.7912 3.28126 40.437 5.06251 42.687 7.31251C44.937 9.56251 46.7183 12.2083 48.0308 15.25C49.3433 18.2917 49.9995 21.5417 49.9995 25C49.9995 28.4304 49.3433 31.6665 48.0308 34.7081C46.7183 37.7498 44.937 40.4027 42.687 42.6669C40.437 44.9306 37.7912 46.7188 34.7495 48.0313C31.7079 49.3438 28.4578 50 24.9995 50Z" fill="#0059FF"/>
</svg>
