<svg width="43" height="50" viewBox="0 0 43 50" fill="none" xmlns="http://www.w3.org/2000/svg">
<path d="M15.5 40C14.125 40 12.9479 39.5104 11.9688 38.5312C10.9896 37.5521 10.5 36.375 10.5 35V5C10.5 3.625 10.9896 2.44792 11.9688 1.46875C12.9479 0.489583 14.125 0 15.5 0H38C39.375 0 40.5521 0.489583 41.5312 1.46875C42.5104 2.44792 43 3.625 43 5V35C43 36.375 42.5104 37.5521 41.5312 38.5312C40.5521 39.5104 39.375 40 38 40H15.5ZM15.5 35H38V5H15.5V35ZM5.5 50C4.125 50 2.94792 49.5104 1.96875 48.5312C0.989583 47.5521 0.5 46.375 0.5 45V10H5.5V45H33V50H5.5Z" fill="#0059FF"/>
</svg>
