<svg width="23" height="20" viewBox="0 0 23 20" fill="none" xmlns="http://www.w3.org/2000/svg">
<path d="M22.2698 20L17.8851 16H6.9236C6.32072 16 5.80461 15.8042 5.37529 15.4125C4.94596 15.0208 4.7313 14.55 4.7313 14V13H16.789C17.3919 13 17.908 12.8042 18.3373 12.4125C18.7666 12.0208 18.9813 11.55 18.9813 11V4H20.0774C20.6803 4 21.1964 4.19583 21.6258 4.5875C22.0551 4.97917 22.2698 5.45 22.2698 6V20ZM2.53899 10.175L3.82697 9H14.5967V2H2.53899V10.175ZM0.34668 15V2C0.34668 1.45 0.561343 0.979167 0.99067 0.5875C1.42 0.195833 1.9361 0 2.53899 0H14.5967C15.1996 0 15.7157 0.195833 16.145 0.5875C16.5743 0.979167 16.789 1.45 16.789 2V9C16.789 9.55 16.5743 10.0208 16.145 10.4125C15.7157 10.8042 15.1996 11 14.5967 11H4.7313L0.34668 15Z" fill="#1C1B1F"/>
</svg>
