<svg width="100" height="132" viewBox="0 0 100 132" fill="none" xmlns="http://www.w3.org/2000/svg">
<path d="M12.5 131.5C9.0625 131.5 6.11979 130.276 3.67188 127.828C1.22396 125.38 0 122.438 0 119V56.5C0 53.0625 1.22396 50.1198 3.67188 47.6719C6.11979 45.224 9.0625 44 12.5 44H18.75V31.5C18.75 22.8542 21.7969 15.4844 27.8906 9.39062C33.9844 3.29687 41.3542 0.25 50 0.25C58.6458 0.25 66.0156 3.29687 72.1094 9.39062C78.2031 15.4844 81.25 22.8542 81.25 31.5V44H87.5C90.9375 44 93.8802 45.224 96.3281 47.6719C98.7761 50.1198 100 53.0625 100 56.5V119C100 122.438 98.7761 125.38 96.3281 127.828C93.8802 130.276 90.9375 131.5 87.5 131.5H12.5ZM12.5 119H87.5V56.5H12.5V119ZM50 100.25C53.4375 100.25 56.3802 99.026 58.8281 96.5781C61.2761 94.1302 62.5 91.1875 62.5 87.75C62.5 84.3125 61.2761 81.3698 58.8281 78.9219C56.3802 76.474 53.4375 75.25 50 75.25C46.5625 75.25 43.6198 76.474 41.1719 78.9219C38.724 81.3698 37.5 84.3125 37.5 87.75C37.5 91.1875 38.724 94.1302 41.1719 96.5781C43.6198 99.026 46.5625 100.25 50 100.25ZM31.25 44H68.75V31.5C68.75 26.2917 66.9271 21.8646 63.2813 18.2188C59.6354 14.5729 55.2083 12.75 50 12.75C44.7917 12.75 40.3646 14.5729 36.7188 18.2188C33.0729 21.8646 31.25 26.2917 31.25 31.5V44Z" fill="white"/>
</svg>
