<svg width="1000" height="1000" viewBox="0 0 1000 1000" fill="none" xmlns="http://www.w3.org/2000/svg">
<circle cx="500" cy="500" r="500" fill="url(#paint0_angular_1_8)"/>
<path d="M217.966 465H150.761V283.182H217.877C236.402 283.182 252.353 286.822 265.729 294.102C279.164 301.322 289.521 311.739 296.801 325.352C304.081 338.905 307.721 355.122 307.721 374.002C307.721 392.942 304.081 409.218 296.801 422.83C289.58 436.443 279.253 446.889 265.817 454.169C252.382 461.39 236.432 465 217.966 465ZM194.706 427.536H216.279C226.459 427.536 235.071 425.819 242.114 422.386C249.216 418.894 254.572 413.242 258.183 405.43C261.852 397.558 263.687 387.082 263.687 374.002C263.687 360.922 261.852 350.505 258.183 342.752C254.513 334.94 249.098 329.317 241.936 325.884C234.834 322.392 226.074 320.646 215.658 320.646H194.706V427.536ZM342.756 465V439.964L431.091 318.871H342.845V283.182H486.666V308.217L398.332 429.311H486.577V465H342.756ZM249.038 640.692C248.446 634.181 245.813 629.121 241.137 625.511C236.521 621.841 229.921 620.006 221.339 620.006C215.658 620.006 210.923 620.746 207.135 622.226C203.347 623.705 200.506 625.747 198.612 628.352C196.718 630.897 195.742 633.826 195.683 637.141C195.564 639.863 196.097 642.26 197.281 644.332C198.523 646.403 200.299 648.238 202.607 649.836C204.975 651.375 207.816 652.736 211.13 653.92C214.444 655.103 218.173 656.139 222.316 657.027L237.941 660.578C246.937 662.531 254.868 665.135 261.734 668.391C268.658 671.646 274.459 675.522 279.134 680.021C283.869 684.519 287.45 689.697 289.876 695.557C292.303 701.416 293.546 707.986 293.605 715.266C293.546 726.748 290.646 736.602 284.905 744.829C279.164 753.056 270.907 759.359 260.136 763.739C249.423 768.118 236.491 770.308 221.339 770.308C206.129 770.308 192.871 768.03 181.567 763.472C170.262 758.915 161.473 751.99 155.2 742.698C148.926 733.406 145.7 721.658 145.523 707.453H187.604C187.959 713.312 189.527 718.195 192.309 722.102C195.091 726.008 198.908 728.967 203.761 730.979C208.674 732.992 214.356 733.998 220.807 733.998C226.725 733.998 231.756 733.199 235.899 731.601C240.101 730.003 243.327 727.783 245.576 724.942C247.825 722.102 248.979 718.846 249.038 715.177C248.979 711.744 247.914 708.814 245.842 706.388C243.771 703.902 240.575 701.771 236.254 699.996C231.993 698.161 226.548 696.474 219.919 694.935L200.92 690.496C185.177 686.886 172.778 681.056 163.722 673.007C154.667 664.899 150.169 653.949 150.228 640.159C150.169 628.914 153.187 619.059 159.283 610.596C165.379 602.132 173.813 595.533 184.585 590.798C195.357 586.063 207.638 583.696 221.428 583.696C235.514 583.696 247.736 586.093 258.094 590.887C268.51 595.622 276.589 602.28 282.33 610.862C288.071 619.444 291.001 629.387 291.119 640.692H249.038ZM364.951 732.222L365.129 680.464H371.165L409.518 631.636H458.701L401.705 701.594H390.253L364.951 732.222ZM325.8 768V586.182H369.212V768H325.8ZM410.494 768L374.805 711.359L403.392 680.553L460.654 768H410.494ZM484.237 768V631.636H527.65V768H484.237ZM505.988 615.745C499.892 615.745 494.654 613.733 490.274 609.708C485.894 605.624 483.705 600.712 483.705 594.971C483.705 589.289 485.894 584.436 490.274 580.411C494.654 576.327 499.892 574.286 505.988 574.286C512.143 574.286 517.381 576.327 521.702 580.411C526.081 584.436 528.271 589.289 528.271 594.971C528.271 600.712 526.081 605.624 521.702 609.708C517.381 613.733 512.143 615.745 505.988 615.745ZM608.695 586.182V768H565.282V586.182H608.695ZM689.74 586.182V768H646.327V586.182H689.74Z" fill="white"/>
<mask id="mask0_1_8" style="mask-type:alpha" maskUnits="userSpaceOnUse" x="500" y="233" width="300" height="300">
<rect x="500" y="233" width="300" height="300" fill="#D9D9D9"/>
</mask>
<g mask="url(#mask0_1_8)">
<path d="M655.937 443.313L760.625 338.625L744.375 322.375L639.687 427.063L655.937 443.313ZM574.375 470.5C553.542 469.458 538.021 465.083 527.812 457.375C517.604 449.667 512.5 438.521 512.5 423.938C512.5 410.396 518.073 399.406 529.219 390.969C540.364 382.531 555.833 377.479 575.625 375.813C583.75 375.188 589.844 373.885 593.906 371.906C597.969 369.927 600 367.167 600 363.625C600 358.208 596.927 354.146 590.781 351.438C584.635 348.729 574.479 346.75 560.312 345.5L562.5 320.5C583.958 322.167 599.739 326.49 609.844 333.469C619.948 340.448 625 350.5 625 363.625C625 374.667 620.989 383.313 612.969 389.563C604.948 395.813 593.125 399.563 577.5 400.813C564.167 401.854 554.167 404.302 547.5 408.156C540.833 412.01 537.5 417.271 537.5 423.938C537.5 431.229 540.417 436.49 546.25 439.719C552.083 442.948 561.875 444.875 575.625 445.5L574.375 470.5ZM661.875 472.688L610.312 421.125L729.687 301.75C733.854 297.583 738.802 295.5 744.531 295.5C750.26 295.5 755.208 297.583 759.375 301.75L781.25 323.625C785.417 327.792 787.5 332.74 787.5 338.469C787.5 344.198 785.417 349.146 781.25 353.313L661.875 472.688ZM612.187 483C608.646 483.833 605.521 482.896 602.812 480.188C600.104 477.479 599.167 474.354 600 470.813L610.312 421.125L661.875 472.688L612.187 483Z" fill="#00FF84"/>
</g>
<defs>
<radialGradient id="paint0_angular_1_8" cx="0" cy="0" r="1" gradientUnits="userSpaceOnUse" gradientTransform="translate(1000 500) rotate(135) scale(707.107)">
<stop offset="0.000584138" stop-color="#00FF84"/>
<stop offset="0.000646623" stop-color="#002333"/>
<stop offset="0.743629" stop-color="#002333"/>
</radialGradient>
</defs>
</svg>
