<svg width="24" height="20" viewBox="0 0 24 20" fill="none" xmlns="http://www.w3.org/2000/svg">
<path d="M18.2308 20H6.17315V7L13.8462 0L15.2164 1.25C15.3443 1.36667 15.4494 1.525 15.5316 1.725C15.6138 1.925 15.6549 2.11667 15.6549 2.3V2.65L14.4491 7H21.5193C22.1039 7 22.6155 7.2 23.0539 7.6C23.4924 8 23.7116 8.46667 23.7116 9V11C23.7116 11.1167 23.6933 11.2417 23.6568 11.375C23.6203 11.5083 23.5837 11.6333 23.5472 11.75L20.2587 18.8C20.0943 19.1333 19.8203 19.4167 19.4366 19.65C19.053 19.8833 18.651 20 18.2308 20ZM8.36546 18H18.2308L21.5193 11V9H11.6539L13.1337 3.5L8.36546 7.85V18ZM6.17315 7V9H2.88469V18H6.17315V20H0.692383V7H6.17315Z" fill="#1C1B1F"/>
</svg>
